<svg width="311" height="240" viewBox="0 0 311 240" fill="none" xmlns="http://www.w3.org/2000/svg">
<path d="M42 2H197C198.657 2 200 3.34314 200 5V204C200 205.657 198.657 207 197 207H42C40.3431 207 39 205.657 39 204V5C39 3.34315 40.3431 2 42 2Z" stroke="#EEEFE9" stroke-width="3"/>
<path fill-rule="evenodd" clip-rule="evenodd" d="M294.405 15H200V116.25H177.409V123.785L178.729 124.17L181.479 119.055L188.959 118.835V147.435C188.959 147.985 188.831 148.407 188.574 148.7C188.354 148.993 187.914 149.268 187.254 149.525L184.229 150.79L184.559 152H198.034L198.364 150.79L193.634 148.865V120.32C193.634 119.917 193.762 119.568 194.019 119.275C194.276 118.982 194.642 118.853 195.119 118.89L200 119.024V193H294.405L311 105.035L294.405 15ZM200 119.024L201.114 119.055L203.864 124.17L205.184 123.785V116.25H200V119.024ZM85.175 59.815C85.1017 59.5583 85.065 59.32 85.065 59.1C85.065 58.4767 85.4133 58.0183 86.11 57.725L89.135 56.46L88.805 55.25H75.33L75 56.46L79.29 58.22L89.245 91L90.345 91.44L94.58 90.45L102.335 63.555L110.475 91L111.575 91.44L115.645 90.45L124.94 59.815C125.16 59.155 125.362 58.715 125.545 58.495C125.728 58.2383 126.132 57.9817 126.755 57.725L129.78 56.46L129.45 55.25H117.24L116.91 56.46L121.64 58.385L113.885 85.06L105.25 55.8L104.205 55.25L100.85 56.35L92.49 85.06L85.175 59.815ZM135.83 72.41C135.83 67.4967 136.967 63.4817 139.24 60.365C141.367 59.0083 144.044 58.33 147.27 58.33C151.157 58.33 154.127 59.705 156.18 62.455C158.27 65.205 159.315 69.1283 159.315 74.225C159.315 79.285 158.179 83.2083 155.905 85.995C153.852 87.3517 151.194 88.03 147.93 88.03C144.007 88.03 141 86.655 138.91 83.905C136.857 81.155 135.83 77.3233 135.83 72.41ZM132.145 65.15C131.192 67.57 130.715 70.32 130.715 73.4C130.715 79.0467 132.237 83.465 135.28 86.655C138.324 89.845 142.229 91.44 146.995 91.44C151.762 91.44 155.795 89.955 159.095 86.985C160.745 85.5183 162.047 83.5933 163 81.21C163.954 78.79 164.43 76.04 164.43 72.96C164.43 67.3133 162.909 62.8767 159.865 59.65C156.822 56.4233 152.917 54.81 148.15 54.81C143.42 54.81 139.369 56.3133 135.995 59.32C134.382 60.7867 133.099 62.73 132.145 65.15ZM177.703 75.49H180.893C181.736 75.49 182.396 75.985 182.873 76.975C185.183 81.8517 186.833 85.0783 187.823 86.655C188.849 88.2317 190.353 89.8267 192.333 91.44L198.493 91L198.878 89.625C196.348 89.075 194.478 88.0483 193.268 86.545C192.058 85.0417 190.206 81.7417 187.713 76.645C187.383 75.9483 187.016 75.4167 186.613 75.05C192.406 73.7667 195.303 70.43 195.303 65.04C195.303 58.22 190.554 54.81 181.058 54.81C178.821 54.81 174.678 54.9567 168.628 55.25L168.298 56.46L173.028 58.385V86.435C173.028 86.985 172.899 87.4067 172.643 87.7C172.423 87.9933 171.983 88.2683 171.323 88.525L168.298 89.79L168.628 91H181.938L182.268 89.79L177.703 87.865V75.49ZM177.703 72.685V59.21C177.703 58.2933 178.198 57.835 179.188 57.835H182.048C184.944 57.835 187.016 58.6417 188.263 60.255C189.546 61.8317 190.188 63.8117 190.188 66.195C190.188 67.735 189.968 68.9083 189.528 69.715C189.088 70.485 188.464 71.1633 187.658 71.75C186.118 72.3733 183.991 72.685 181.278 72.685H177.703ZM206.006 58.385V86.435C206.006 86.985 205.878 87.4067 205.621 87.7C205.401 87.9933 204.961 88.2683 204.301 88.525L201.276 89.79L201.606 91C208.939 91.2933 213.064 91.44 213.981 91.44C221.461 91.44 226.924 90.1017 230.371 87.425C233.854 84.7483 235.596 80.1467 235.596 73.62C235.596 61.08 229.473 54.81 217.226 54.81C215.099 54.81 209.893 54.9567 201.606 55.25L201.276 56.46L206.006 58.385ZM212.166 57.835H218.051C222.084 57.835 225.164 59.2833 227.291 62.18C229.418 65.0767 230.481 69.0733 230.481 74.17C230.481 79.23 229.344 83.1533 227.071 85.94C224.651 87.5167 221.021 88.305 216.181 88.305C213.944 88.305 212.111 88.2317 210.681 88.085V59.21C210.681 58.2933 211.176 57.835 212.166 57.835ZM86.77 136.875C88.4567 136.948 89.7033 136.985 90.51 136.985C99.5667 136.985 104.095 133.41 104.095 126.26C104.095 122.703 102.922 120.082 100.575 118.395C98.265 116.672 94.7083 115.81 89.905 115.81C87.595 115.81 83.525 115.957 77.695 116.25L77.365 117.46L82.095 119.385V147.435C82.095 147.985 81.9667 148.407 81.71 148.7C81.49 148.993 81.05 149.268 80.39 149.525L77.365 150.79L77.695 152H91.72L92.05 150.79L86.77 148.645V136.875ZM88.255 118.835H90.84C96.2667 118.835 98.98 121.603 98.98 127.14C98.98 129.89 98.32 131.778 97 132.805C94.9467 133.648 92.6367 134.07 90.07 134.07C88.8233 134.07 87.7233 133.997 86.77 133.85V120.21C86.77 119.293 87.265 118.835 88.255 118.835ZM113.057 133.41C113.057 128.497 114.194 124.482 116.467 121.365C118.594 120.008 121.27 119.33 124.497 119.33C128.384 119.33 131.354 120.705 133.407 123.455C135.497 126.205 136.542 130.128 136.542 135.225C136.542 140.285 135.405 144.208 133.132 146.995C131.079 148.352 128.42 149.03 125.157 149.03C121.234 149.03 118.227 147.655 116.137 144.905C114.084 142.155 113.057 138.323 113.057 133.41ZM109.372 126.15C108.419 128.57 107.942 131.32 107.942 134.4C107.942 140.047 109.464 144.465 112.507 147.655C115.55 150.845 119.455 152.44 124.222 152.44C128.989 152.44 133.022 150.955 136.322 147.985C137.972 146.518 139.274 144.593 140.227 142.21C141.18 139.79 141.657 137.04 141.657 133.96C141.657 128.313 140.135 123.877 137.092 120.65C134.049 117.423 130.144 115.81 125.377 115.81C120.647 115.81 116.595 117.313 113.222 120.32C111.609 121.787 110.325 123.73 109.372 126.15ZM154.929 136.49H158.119C158.963 136.49 159.623 136.985 160.099 137.975C162.409 142.852 164.059 146.078 165.049 147.655C166.076 149.232 167.579 150.827 169.559 152.44L175.719 152L176.104 150.625C173.574 150.075 171.704 149.048 170.494 147.545C169.284 146.042 167.433 142.742 164.939 137.645C164.609 136.948 164.243 136.417 163.839 136.05C169.633 134.767 172.529 131.43 172.529 126.04C172.529 119.22 167.781 115.81 158.284 115.81C156.048 115.81 151.904 115.957 145.854 116.25L145.524 117.46L150.254 119.385V147.435C150.254 147.985 150.126 148.407 149.869 148.7C149.649 148.993 149.209 149.268 148.549 149.525L145.524 150.79L145.854 152H159.164L159.494 150.79L154.929 148.865V136.49ZM154.929 133.685V120.21C154.929 119.293 155.424 118.835 156.414 118.835H159.274C162.171 118.835 164.243 119.642 165.489 121.255C166.773 122.832 167.414 124.812 167.414 127.195C167.414 128.735 167.194 129.908 166.754 130.715C166.314 131.485 165.691 132.163 164.884 132.75C163.344 133.373 161.218 133.685 158.504 133.685H154.929ZM229.653 147.435C229.763 147.692 229.818 147.93 229.818 148.15C229.818 148.773 229.451 149.232 228.718 149.525L225.693 150.79L226.023 152H239.498L239.828 150.79L235.538 149.03L223.713 116.25L222.613 115.81L219.258 116.8L208.258 147.435C208.001 148.132 207.781 148.59 207.598 148.81C207.451 149.03 207.066 149.268 206.443 149.525L203.418 150.79L203.748 152H215.903L216.233 150.79L211.503 148.865L214.418 140.45H227.178L229.653 147.435ZM215.353 137.645L220.743 122.19L226.188 137.645H215.353ZM250.374 149.14V120.815C250.374 120.265 250.484 119.843 250.704 119.55C250.96 119.257 251.419 118.982 252.079 118.725L255.104 117.46L254.774 116.25H241.299L240.969 117.46L245.699 119.385V147.435C245.699 147.985 245.57 148.407 245.314 148.7C245.094 148.993 244.654 149.268 243.994 149.525L240.969 150.79L241.299 152H266.874V144.465L265.224 144.08L262.584 148.92L250.374 149.14Z" fill="#EEEFE9"/>
<path d="M39.7417 213.662C40.2747 213.234 40.9381 213 41.6221 213H191.484C194.316 213 195.571 216.563 193.365 218.338L167.258 239.338C166.725 239.766 166.062 240 165.378 240H15.5158C12.684 240 11.4289 236.437 13.6354 234.662L39.7417 213.662Z" fill="#EEEFE9"/>
<path d="M31.8997 213.9C32.5961 213.33 33 212.478 33 211.578L33 13.4908C33 10.6617 29.4432 9.40503 27.6659 11.6061L0.665897 45.0448C0.23502 45.5785 0 46.2436 0 46.9295L0 233.669C0 236.2 2.94092 237.594 4.89971 235.991L31.8997 213.9Z" fill="#EEEFE9"/>
</svg>
